<?xml version="1.0" encoding="utf-8"?>
<!-- Generator: Adobe Illustrator 19.0.0, SVG Export Plug-In . SVG Version: 6.00 Build 0)  -->
<svg version="1.1" id="Layer_1" xmlns="http://www.w3.org/2000/svg" xmlns:xlink="http://www.w3.org/1999/xlink" x="0px" y="0px"
	 viewBox="0 0 169.1 98.8" style="enable-background:new 0 0 169.1 98.8;" xml:space="preserve">
<style type="text/css">
	.st0{fill-rule:evenodd;clip-rule:evenodd;fill:#F58220;}
	.st1{fill-rule:evenodd;clip-rule:evenodd;fill:#ED1B34;}
	.st2{fill:#ED1B34;}
</style>
<g id="XMLID_49_">
	<g id="XMLID_46_">
		<path id="XMLID_47_" class="st0" d="M168.5,58.1c-0.7-2.2-1.3-4.2-2.3-6c-3.6-6.9-9.8-11.3-18.7-13c-2.5-0.5-5.4,0.1-7.7,0.2
			c-0.3-1.3-0.6-2.5-0.9-3.8c-1-2.6-1.7-5.2-2.8-7.6c-4-8.5-10.7-16.1-18.5-20.8c-2.5-1.5-5.1-2.7-7.9-4c-7.8-3.5-21-4.3-30.4-1.7
			c-8,2.2-13.7,5.8-19.4,10.3c-1.9,1.5-3.5,3.5-5.2,5.3c-0.9,1-1.6,2.2-2.4,3.3c-1.6,2-2.7,4.2-4,6.6c-0.8,1.4-1.7,3.1-2.1,4.8
			c-1.1-0.5-2.2-1-3.3-1.5c-2.1-0.8-4.4-1.3-6.9-1.7c-3.2-0.6-7.6-0.3-10.5,0.4c-1.1,0.3-2,0.4-3,0.7c-6.5,2-12.1,5.9-15.8,10.9
			c-2.3,3.1-3.7,6.3-5.3,10.2c-1.7,4.3-1.6,11.7-0.4,16.4C3.4,77.1,9.2,84,17.4,88.2c4.7,2.4,9.9,3.3,17.1,3.3
			c2.3,0,5.4,0.4,7.1-0.3c2.6-1,4.6-2.4,5.8-4.7c3-5.7-0.9-11.2-5.2-12.8c-3.2-1.2-6.2,0.1-7-3.8c-0.6-2.5,2-4.9,4.5-4.4
			c1.1,0.2,2.1,1,2.6,1.9c0.3,0.6,0.4,1.1,0.9,1.4c1.3,0.7,2.7-0.1,3.1-1.3c0.4-1.3-1.2-3.1-1.7-3.7c-3.2-3.3-8.7-3.2-11.6,0.2
			c-0.7,0.8-1.2,1.7-1.6,2.8c-1.5,5,1.8,8.9,5.3,10c1.7,0.5,3.8,0.3,5.1,1.1c2.6,1.6,3.3,5.3,1.2,7.8c-0.6,0.7-1.6,1.2-2.5,1.5
			c-1.1,0.3-2.8,0.1-4.2,0.1c-2.9,0-6.1,0.2-8.5-0.3c-1.6-0.3-3.2-0.4-4.6-1c-1.7-0.7-3.6-1.3-5.1-2.2c-6.6-4.2-11.2-9.6-13.3-18.3
			c-1-4.2-0.4-9.7,0.6-13.3c2.4-8.9,8.5-14.5,16.5-17.9c2.5-1,7.5-2.3,11.3-1.8c0.7,0,1.3,0.1,2,0.1c1.4,0.3,2.8,0.6,4.2,0.9
			c2.7,0.9,5.2,2,7.5,3.4c1,0.6,2.9,2.9,4.5,2.4c0.6-0.2,1-0.6,1.2-1.1c1-1.7-1.5-3.7-2.6-4.1c-0.2-0.4,1-3.1,1.3-3.6
			c1.7-3.5,3.4-6.6,5.7-9.4c5.9-7.2,12.5-11.8,22.3-15.2c1.4-0.5,2.8-0.6,4.3-1c4.7-1.1,12.5-1.2,17.3,0c2.7,0.7,5.4,1.3,7.8,2.3
			c10.8,4.5,18.4,11.9,23.7,22c1.8,3.5,2.9,7.6,3.8,12c0.4,1.9,0,5.1,1.5,6c0.4,0.2,1.1,0.3,1.6,0.2c1.9-0.6,1.4-1.9,1.4-4
			c11.3-1.7,19.6,4.4,22.8,11.9c0.6,1.4,1,2.9,1.4,4.4c0.3,1.1,0.1,2.1,0.3,3.3c0.3,1.6,0,3.8-0.4,5c-0.3,1-0.4,1.8-0.7,2.7
			c-1.1,3.3-3.2,6.4-5.6,8.5c-2.3,2.1-5,3.4-8.3,4.6c-2.4,0.9-5.4,0.7-8.5,0.7H85.9V67c0-2.2,0.4-4.1-1.1-5
			c-0.3-0.2-0.6-0.5-1.1-0.4c-2.4,0.3-2,3.1-2,5.8c0,4.4,0.5,9-2.4,10.5c-0.7,0.3-1.7,0.8-3,0.6c-4.3-0.9-3.4-7-3.4-12.1v-3
			c-0.3-1.2-1.8-2.3-3.2-1.4c-0.5,0.3-0.8,0.9-1,1.5V74c0.2,1.4,0.2,2.6,0.7,3.8c1.2,3.2,5,6,9.7,4.5c1.1-0.4,1.8-1.1,2.7-1.7v4
			c-0.8,0-1.6,0-2.4,0c-1.1,0.2-2.1,0.7-2.9,1.2c-3.2,2.4-3.1,9.5,0.1,11.9c0.5,0.4,1.3,0.7,2,0.9c1.1,0.3,2.6,0.1,3.5-0.2
			c2.9-1.3,3.8-2.8,3.8-7v-2.6c5.2,0,10.5,0,15.7,0h40.8c1.9,0,3.9,0.1,5.5-0.2c3.9-0.9,6.9-1.9,9.8-3.7c5.4-3.4,9-8.6,10.8-15.7
			C169.3,66,169.4,61.2,168.5,58.1z M80.6,94.6c-0.4,0.1-1,0.1-1.3-0.1c-0.2-0.2-0.5-0.5-0.7-0.7c-0.2-0.5-0.2-3.5,0-3.9
			c0.5-1.2,1.6-1.2,3.3-1.2C81.8,91,82.3,93.9,80.6,94.6z M85.6,64.4C85.6,64.4,85.6,64.4,85.6,64.4l-0.1-0.1c0,0,0.1,0,0.1,0h0.1
			c0,0,0,0.1,0,0.1C85.7,64.4,85.7,64.4,85.6,64.4z M66.5,78.9c-1.5-1.5-3.1-3-4.6-4.5c-0.5-0.6-1.5-1.2-1.8-1.9
			c0.8-0.5,1.4-1.8,1.9-2.5c0.9-1.1,1.8-2.2,2.6-3.3c0.6-0.7,1.7-1.6,2-2.5c0.4-1.2-0.7-2.2-1.3-2.5c-1.8-0.8-2.6,1.4-3.3,2.2
			C60.5,66,59,68,57.4,70c-0.5,0.6-0.9,1.2-1.4,1.9c0-8.1,0-16.2,0-24.2c-0.1,0-0.2,0.1-0.3,0.1v0c0.1-0.1,0.1-0.1,0.3-0.1
			c0.2-1.6-0.9-2.6-2.5-2.6c-0.5,0.3-0.9,0.4-1.2,0.8c-0.8,1-0.4,5.3-0.4,7.1v20.9c0,1.7-0.3,7.2,0.2,8.3c0.8,1.4,3.2,1.4,3.8-0.2
			c0.2-0.5,0.1-1.5,0.1-2.2v-5.4h0c1,0.6,1.8,1.8,2.6,2.6c1.6,1.6,3.2,3.1,4.8,4.7c0.9,0.9,2.1,2.5,3.8,1
			C68.7,81.1,67.6,79.9,66.5,78.9z"/>
	</g>
</g>
<path id="XMLID_61_" class="st1" d="M90.5,43.3c2.9,0,2.5,2.4,2.5,5.2c0,4.4,0,8.8,0,13.3c0.9-0.6,1.6-1.3,2.7-1.6
	c1-0.3,2.5-0.4,3.7-0.2c4.7,0.9,6.6,4,6.6,9.5c0,2.4,0,4.9,0,7.3c0,1.5,0.1,2.8-0.8,3.4c-1.3,1-3.1,0.1-3.4-1.2c0-1,0-2.1,0-3.1
	c0-4.7,0.9-12.8-4.4-12c-4.6,0.7-4.4,4-4.4,9.2c0,3,0.7,7.1-1.8,7.6c-3.3,0.6-2.4-5.3-2.4-8.1c0-7.1,0-14.3,0-21.4
	c0-1.7-0.4-6.3,0.4-7.1C89.5,43.7,90,43.6,90.5,43.3z"/>
<path id="XMLID_57_" class="st1" d="M110.2,59.8c3.3,0,2.5,3,2.5,6.1c0,4.5-0.5,9.5,2.9,10.6c0.7,0.2,1.8,0.2,2.5,0
	c3.8-1.2,3.1-6.2,3.1-11.1c0-2.3-0.4-4.6,1.2-5.4c0.3-0.2,0.8-0.4,1.4-0.2c2.2,0.6,1.7,3.9,1.7,6.7c0,6.3,0.2,11.3-4.1,13.4
	c-0.7,0.3-1.5,0.5-2.3,0.7c-1.2,0.3-3.1,0.2-4.2-0.1c-4.5-1-6.3-4-6.3-9.5c0-2.3,0-4.6,0-6.9c0-1-0.2-2.4,0.1-3.1
	C109,60.4,109.6,60.2,110.2,59.8z"/>
<g id="XMLID_20_">
	<path id="XMLID_68_" class="st2" d="M137.4,59.7c-1.7,0.4-2.8,1.3-4.1,2.1c0-1.3,0-2.5,0-3.8c0-3.4,0-6.8,0-10.2
		c0-1.5,0.2-3.3-0.5-4.2c-0.4-0.5-1-0.7-2-0.7c-0.7,0.3-1.3,0.5-1.6,1.2c-0.4,1-0.2,2.9-0.2,4.1c0,3.1,0,6.2,0,9.3
		c0,3.3,0,6.6,0,9.8c0,1.9-0.2,4,0.3,5.4c1,2.9,2.4,4.8,4.7,6.2c1.5,1,4.1,2,6.8,1.5c4.6-0.8,7.6-3.2,8.8-7.3
		C152.2,65.6,145.5,57.7,137.4,59.7z M140.1,76.7c-4.6,0.7-8-4.2-6.7-8.6c0.6-1.9,2.2-3.5,4-4.2c0.5-0.2,1.2-0.1,1.8-0.3
		c3.2,0.3,5,1.5,6.1,3.8c0.4,0.8,0.5,1.7,0.5,2.8C145.8,74,143.5,76.2,140.1,76.7z"/>
</g>
</svg>
